HIERARCHY
ROOT Hips
{
    OFFSET 0.000000 0.000000 0.000000
    CHANNELS 6 Xposition Yposition Zposition Zrotation Xrotation Yrotation
    JOINT Spine
    {
        OFFSET -0.000000 7.305680 0.000000
        CHANNELS 3 Zrotation Xrotation Yrotation
        JOINT Spine1
        {
            OFFSET -0.000000 20.356600 0.000000
            CHANNELS 3 Zrotation Xrotation Yrotation
            JOINT Neck
            {
                OFFSET -0.000000 22.138500 0.000000
                CHANNELS 3 Zrotation Xrotation Yrotation
                JOINT Head
                {
                    OFFSET -0.000000 13.809501 1.781870
                    CHANNELS 3 Zrotation Xrotation Yrotation
                    End Site
                    {
                        OFFSET -0.000000 17.818779 0.000000
                    }
                }
            }
            JOINT LeftShoulder
            {
                OFFSET 3.599130 17.990000 0.023591
                CHANNELS 3 Zrotation Xrotation Yrotation
                JOINT LeftArm
                {
                    OFFSET 12.560999 0.000000 0.000000
                    CHANNELS 3 Zrotation Xrotation Yrotation
                    JOINT LeftForeArm
                    {
                        OFFSET 22.903299 0.000000 0.000000
                        CHANNELS 3 Zrotation Xrotation Yrotation
                        JOINT LeftHand
                        {
                            OFFSET 21.865299 0.000000 0.000000
                            CHANNELS 3 Zrotation Xrotation Yrotation
                            JOINT LeftHandThumb1
                            {
                                OFFSET 1.853710 -2.106480 2.949080
                                CHANNELS 3 Zrotation Xrotation Yrotation
                                JOINT LeftHandThumb2
                                {
                                    OFFSET 2.049150 0.000000 1.336400
                                    CHANNELS 3 Zrotation Xrotation Yrotation
                                    JOINT LeftHandThumb3
                                    {
                                        OFFSET 2.672810 0.000000 0.000000
                                        CHANNELS 3 Zrotation Xrotation Yrotation
                                        End Site
                                        {
                                            OFFSET 2.381310 0.000000 0.000000
                                        }
                                    }
                                }
                            }
                            JOINT LeftHandIndex1
                            {
                                OFFSET 7.583340 0.000000 2.949080
                                CHANNELS 3 Zrotation Xrotation Yrotation
                                JOINT LeftHandIndex2
                                {
                                    OFFSET 4.454680 0.000000 0.000000
                                    CHANNELS 3 Zrotation Xrotation Yrotation
                                    JOINT LeftHandIndex3
                                    {
                                        OFFSET 2.227340 0.000000 0.000000
                                        CHANNELS 3 Zrotation Xrotation Yrotation
                                        End Site
                                        {
                                            OFFSET 1.984424 0.000000 0.000000
                                        }
                                    }
                                }
                            }
                            JOINT LeftHandMiddle1
                            {
                                OFFSET 7.583340 0.000000 0.977409
                                CHANNELS 3 Zrotation Xrotation Yrotation
                                JOINT LeftHandMiddle2
                                {
                                    OFFSET 4.900150 0.000000 0.000000
                                    CHANNELS 3 Zrotation Xrotation Yrotation
                                    JOINT LeftHandMiddle3
                                    {
                                        OFFSET 2.672810 0.000000 0.000000
                                        CHANNELS 3 Zrotation Xrotation Yrotation
                                        End Site
                                        {
                                            OFFSET 2.381310 0.000000 0.000000
                                        }
                                    }
                                }
                            }
                            JOINT LeftHandRing1
                            {
                                OFFSET 7.162050 0.000000 -0.977409
                                CHANNELS 3 Zrotation Xrotation Yrotation
                                JOINT LeftHandRing2
                                {
                                    OFFSET 4.454680 0.000000 0.000000
                                    CHANNELS 3 Zrotation Xrotation Yrotation
                                    JOINT LeftHandRing3
                                    {
                                        OFFSET 2.227340 0.000000 0.000000
                                        CHANNELS 3 Zrotation Xrotation Yrotation
                                        End Site
                                        {
                                            OFFSET 1.984424 0.000000 0.000000
                                        }
                                    }
                                }
                            }
                            JOINT LeftHandPinky1
                            {
                                OFFSET 6.740750 0.000000 -2.949080
                                CHANNELS 3 Zrotation Xrotation Yrotation
                                JOINT LeftHandPinky2
                                {
                                    OFFSET 3.563750 0.000000 0.000000
                                    CHANNELS 3 Zrotation Xrotation Yrotation
                                    JOINT LeftHandPinky3
                                    {
                                        OFFSET 1.781870 0.000000 0.000000
                                        CHANNELS 3 Zrotation Xrotation Yrotation
                                        End Site
                                        {
                                            OFFSET 1.587538 0.000000 0.000000
                                        }
                                    }
                                }
                            }
                        }
                    }
                }
            }
            JOINT RightShoulder
            {
                OFFSET -3.506990 17.990000 0.023591
                CHANNELS 3 Zrotation Xrotation Yrotation
                JOINT RightArm
                {
                    OFFSET -12.560999 0.000000 0.000000
                    CHANNELS 3 Zrotation Xrotation Yrotation
                    JOINT RightForeArm
                    {
                        OFFSET -22.903299 0.000000 0.000000
                        CHANNELS 3 Zrotation Xrotation Yrotation
                        JOINT RightHand
                        {
                            OFFSET -21.865299 0.000000 0.000000
                            CHANNELS 3 Zrotation Xrotation Yrotation
                            JOINT RightHandThumb1
                            {
                                OFFSET -1.853710 -2.106480 2.949080
                                CHANNELS 3 Zrotation Xrotation Yrotation
                                JOINT RightHandThumb2
                                {
                                    OFFSET -2.049150 0.000000 1.336400
                                    CHANNELS 3 Zrotation Xrotation Yrotation
                                    JOINT RightHandThumb3
                                    {
                                        OFFSET -2.672810 0.000000 0.000000
                                        CHANNELS 3 Zrotation Xrotation Yrotation
                                        End Site
                                        {
                                            OFFSET -2.381310 0.000000 0.000000
                                        }
                                    }
                                }
                            }
                            JOINT RightHandIndex1
                            {
                                OFFSET -7.583340 0.000000 2.949080
                                CHANNELS 3 Zrotation Xrotation Yrotation
                                JOINT RightHandIndex2
                                {
                                    OFFSET -4.454680 0.000000 0.000000
                                    CHANNELS 3 Zrotation Xrotation Yrotation
                                    JOINT RightHandIndex3
                                    {
                                        OFFSET -2.227340 0.000000 0.000000
                                        CHANNELS 3 Zrotation Xrotation Yrotation
                                        End Site
                                        {
                                            OFFSET -1.984424 0.000000 0.000000
                                        }
                                    }
                                }
                            }
                            JOINT RightHandMiddle1
                            {
                                OFFSET -7.583340 0.000000 0.977409
                                CHANNELS 3 Zrotation Xrotation Yrotation
                                JOINT RightHandMiddle2
                                {
                                    OFFSET -4.900150 0.000000 0.000000
                                    CHANNELS 3 Zrotation Xrotation Yrotation
                                    JOINT RightHandMiddle3
                                    {
                                        OFFSET -2.672810 0.000000 0.000000
                                        CHANNELS 3 Zrotation Xrotation Yrotation
                                        End Site
                                        {
                                            OFFSET -2.381310 0.000000 0.000000
                                        }
                                    }
                                }
                            }
                            JOINT RightHandRing1
                            {
                                OFFSET -7.162050 0.000000 -0.977409
                                CHANNELS 3 Zrotation Xrotation Yrotation
                                JOINT RightHandRing2
                                {
                                    OFFSET -4.454680 0.000000 0.000000
                                    CHANNELS 3 Zrotation Xrotation Yrotation
                                    JOINT RightHandRing3
                                    {
                                        OFFSET -2.227340 0.000000 0.000000
                                        CHANNELS 3 Zrotation Xrotation Yrotation
                                        End Site
                                        {
                                            OFFSET -1.984424 0.000000 0.000000
                                        }
                                    }
                                }
                            }
                            JOINT RightHandPinky1
                            {
                                OFFSET -6.740750 0.000000 -2.949080
                                CHANNELS 3 Zrotation Xrotation Yrotation
                                JOINT RightHandPinky2
                                {
                                    OFFSET -3.563750 0.000000 0.000000
                                    CHANNELS 3 Zrotation Xrotation Yrotation
                                    JOINT RightHandPinky3
                                    {
                                        OFFSET -1.781870 0.000000 0.000000
                                        CHANNELS 3 Zrotation Xrotation Yrotation
                                        End Site
                                        {
                                            OFFSET -1.587538 0.000000 0.000000
                                        }
                                    }
                                }
                            }
                        }
                    }
                }
            }
        }
    }
    JOINT LeftUpLeg
    {
        OFFSET 8.909360 0.000000 0.000000
        CHANNELS 3 Zrotation Xrotation Yrotation
        JOINT LeftLeg
        {
            OFFSET -0.000000 -38.765602 0.000000
            CHANNELS 3 Zrotation Xrotation Yrotation
            JOINT LeftFoot
            {
                OFFSET -0.000000 -35.245003 0.000000
                CHANNELS 3 Zrotation Xrotation Yrotation
                JOINT LeftToeBase
                {
                    OFFSET -0.000000 -5.791090 13.364000
                    CHANNELS 3 Zrotation Xrotation Yrotation
                    End Site
                    {
                        OFFSET -0.000000 0.000000 3.563756
                    }
                }
            }
        }
    }
    JOINT RightUpLeg
    {
        OFFSET -8.909360 0.000000 0.000000
        CHANNELS 3 Zrotation Xrotation Yrotation
        JOINT RightLeg
        {
            OFFSET -0.000000 -38.765602 0.000000
            CHANNELS 3 Zrotation Xrotation Yrotation
            JOINT RightFoot
            {
                OFFSET -0.000000 -35.245003 0.000000
                CHANNELS 3 Zrotation Xrotation Yrotation
                JOINT RightToeBase
                {
                    OFFSET -0.000000 -5.791090 13.364000
                    CHANNELS 3 Zrotation Xrotation Yrotation
                    End Site
                    {
                        OFFSET -0.000000 0.000000 3.563756
                    }
                }
            }
        }
    }
}
MOTION
Frames:    4
Frame Time:    0.033333
2.271355    81.387772    111.573753    0.382531    4.408468    5.164910    1.635440    -0.710722    -0.901737    -3.791344    1.673989    -0.248762    0.275264    -6.056502    5.016690    5.786840    -15.898766    5.273988    1.361484    4.845891    -11.736755    -86.914886    26.066238    -0.110706    14.930310    -6.741408    -6.636156    -9.429991    -32.076450    3.397905    0.756725    -0.471376    0.374349    -0.000000    0.000000    0.319526    -0.000000    0.000000    0.639053    -10.810721    1.741865    -9.044611    -21.897001    0.000000    0.000000    -10.948501    0.000000    0.000000    -18.585423    0.102958    -3.012054    -37.166103    0.000000    0.000000    -18.583052    0.000000    0.000000    -26.151012    -2.326918    2.748067    -52.435200    0.000000    0.000000    -26.217604    0.000000    0.000000    -33.676991    -5.588320    8.314476    -68.167000    0.000000    0.000000    -34.083500    0.000000    0.000000    -4.685798    -1.993502    0.823558    96.519142    51.941143    -8.911357    -9.777321    -30.015703    1.678478    4.205092    -42.353664    -1.033705    -1.028865    -3.386919    4.493502    0.000000    0.000000    0.000000    0.000000    0.000000    0.000000    14.518908    0.000000    -0.000000    29.037817    0.000000    -0.000000    14.518908    0.000000    -0.000000    21.177937    -1.563532    -2.937407    42.466793    0.000000    -0.000000    21.233389    0.000000    -0.000000    27.757057    -3.455231    -5.677373    55.895744    0.000000    -0.000000    27.947874    0.000000    -0.000000    34.452583    -5.717122    -8.261668    69.731659    0.000000    -0.000000    34.865826    0.000000    -0.000000    -0.149040    -2.298838    -4.270080    1.982974    -6.051084    22.269646    -2.898314    5.495026    -16.780733    0.502723    -2.867834    -1.683669    -0.934233    -1.912372    4.099589    0.572819    -3.756725    -11.058660    0.291682    -0.380693    -0.642826    -0.205928    -1.339148    0.189963    
2.209952    81.413635    111.510468    0.365313    4.483943    4.925474    1.531353    -0.820072    -0.792036    -3.659644    1.742400    -0.212284    0.243832    -5.845497    4.996624    5.831441    -16.388985    5.277764    1.180497    4.931698    -11.503819    -87.350143    26.201014    -0.295001    15.587675    -3.966989    -6.800935    -7.768117    -31.612690    3.605199    -0.881800    1.463491    0.671409    -0.000000    0.000000    0.795978    -0.000000    0.000000    1.591957    -13.285488    1.962506    -8.252222    -26.854145    0.000000    0.000000    -13.427074    0.000000    0.000000    -19.785213    -0.044670    -2.070099    -39.573315    0.000000    0.000000    -19.786655    0.000000    0.000000    -26.038008    -2.726389    3.851729    -52.292492    0.000000    0.000000    -26.146240    0.000000    0.000000    -32.181263    -6.132159    9.634334    -65.397079    0.000000    0.000000    -32.698540    0.000000    0.000000    -4.379370    -1.952900    0.858603    97.043037    51.682583    -8.945326    -9.736545    -29.333786    1.524136    3.374012    -42.266903    -1.297079    -1.028740    -3.312546    4.382657    0.000000    0.000000    0.000000    0.000000    0.000000    0.000000    14.354651    0.000000    -0.000000    28.709307    0.000000    -0.000000    14.354651    0.000000    -0.000000    21.010685    -1.521037    -2.878651    42.127197    0.000000    -0.000000    21.063601    0.000000    -0.000000    27.590420    -3.363697    -5.565020    55.545090    0.000000    -0.000000    27.772545    0.000000    -0.000000    34.290169    -5.569149    -8.099828    69.369583    0.000000    -0.000000    34.684792    0.000000    -0.000000    0.000015    -2.495477    -3.899667    1.768559    -5.861678    21.676573    -2.914298    5.359379    -16.327805    0.502737    -2.886391    -1.686725    -0.881194    -2.145383    4.482698    0.583291    -3.597467    -10.908573    0.295596    -0.432702    -0.935940    -0.206658    -1.343446    0.190685    
2.176323    81.447617    111.445702    0.382708    4.597232    4.727297    1.432561    -0.935118    -0.726852    -3.568565    1.743863    -0.192262    0.258333    -5.625432    4.985137    5.860057    -16.687447    5.284013    1.118002    5.067256    -11.332308    -87.812828    26.308769    -0.453966    16.226370    -2.016895    -7.214155    -6.263529    -31.030130    4.232115    -1.883331    2.244590    0.385547    -0.000000    0.000000    0.637019    -0.000000    0.000000    1.274039    -14.591647    2.290866    -8.729506    -29.533047    0.000000    0.000000    -14.766522    0.000000    0.000000    -20.454020    -0.076204    -1.905104    -40.915337    0.000000    0.000000    -20.457670    0.000000    0.000000    -26.001747    -3.110395    4.651454    -52.297642    0.000000    0.000000    -26.148819    0.000000    0.000000    -31.344608    -6.863778    11.101191    -64.024841    0.000000    0.000000    -32.012421    0.000000    0.000000    -4.246335    -1.868610    0.846723    97.569954    51.509171    -9.005312    -9.743908    -29.246107    1.402730    3.217618    -42.422775    -1.450421    -1.049611    -3.304287    4.355530    0.000000    0.000000    0.000000    0.000000    0.000000    0.000000    14.353827    0.000000    -0.000000    28.707653    0.000000    -0.000000    14.353827    0.000000    -0.000000    21.047340    -1.508449    -2.846024    42.198555    0.000000    -0.000000    21.099272    0.000000    -0.000000    27.666111    -3.336614    -5.500154    55.689438    0.000000    -0.000000    27.844723    0.000000    -0.000000    34.407829    -5.525162    -8.001996    69.589165    0.000000    -0.000000    34.794582    0.000000    -0.000000    -0.013463    -2.648485    -3.978934    1.820615    -5.811697    21.714977    -2.963329    5.341307    -16.085152    0.504129    -2.908681    -1.693997    -0.906479    -2.380590    4.433184    0.650771    -3.488495    -10.595046    0.332952    -0.482423    -1.011453    -0.209295    -1.342298    0.194995    
2.171694    81.470070    111.383499    0.435068    4.661933    4.547976    1.334820    -0.967488    -0.696056    -3.488803    1.724834    -0.183617    0.294640    -5.490026    4.991810    5.866220    -16.754786    5.298040    1.169175    5.179282    -11.276443    -88.190590    26.615377    -0.532601    16.732626    -1.459172    -7.831888    -5.597431    -30.476871    4.855087    -2.137259    2.116688    -0.097874    -0.000000    0.000000    0.221529    -0.000000    0.000000    0.443057    -14.950358    2.578648    -9.564016    -30.332228    0.000000    0.000000    -15.166112    0.000000    0.000000    -20.489544    -0.101777    -1.934027    -40.989719    0.000000    0.000000    -20.494862    0.000000    0.000000    -25.633350    -3.481440    5.415121    -51.647228    0.000000    0.000000    -25.823610    0.000000    0.000000    -30.466785    -7.609247    12.685653    -62.627678    0.000000    0.000000    -31.313841    0.000000    0.000000    -4.296829    -1.749901    0.814672    97.834175    51.312057    -9.011888    -9.782002    -29.628300    1.374547    3.587039    -42.630074    -1.508112    -1.063757    -3.346620    4.408633    0.000000    0.000000    0.000000    0.000000    0.000000    0.000000    14.540318    0.000000    -0.000000    29.080641    0.000000    -0.000000    14.540318    0.000000    -0.000000    21.291855    -1.514583    -2.821437    42.687141    0.000000    -0.000000    21.343569    0.000000    -0.000000    27.969193    -3.348661    -5.448562    56.293629    0.000000    -0.000000    28.146812    0.000000    -0.000000    34.772247    -5.542601    -7.919734    70.312439    0.000000    -0.000000    35.156223    0.000000    -0.000000    -0.152294    -2.678354    -4.369774    2.063848    -5.885934    22.253353    -3.024158    5.419513    -16.041092    0.505901    -2.931338    -1.702330    -0.975760    -2.519762    4.027265    0.716657    -3.453985    -10.175282    0.408020    -0.498803    -0.869093    -0.212218    -1.341280    0.199746    
